%TF.GenerationSoftware,KiCad,Pcbnew,9.0.5*%
%TF.CreationDate,2025-11-17T21:05:11-05:00*%
%TF.ProjectId,precision-clock,70726563-6973-4696-9f6e-2d636c6f636b,rev?*%
%TF.SameCoordinates,Original*%
%TF.FileFunction,Paste,Bot*%
%TF.FilePolarity,Positive*%
%FSLAX46Y46*%
G04 Gerber Fmt 4.6, Leading zero omitted, Abs format (unit mm)*
G04 Created by KiCad (PCBNEW 9.0.5) date 2025-11-17 21:05:11*
%MOMM*%
%LPD*%
G01*
G04 APERTURE LIST*
G04 Aperture macros list*
%AMRoundRect*
0 Rectangle with rounded corners*
0 $1 Rounding radius*
0 $2 $3 $4 $5 $6 $7 $8 $9 X,Y pos of 4 corners*
0 Add a 4 corners polygon primitive as box body*
4,1,4,$2,$3,$4,$5,$6,$7,$8,$9,$2,$3,0*
0 Add four circle primitives for the rounded corners*
1,1,$1+$1,$2,$3*
1,1,$1+$1,$4,$5*
1,1,$1+$1,$6,$7*
1,1,$1+$1,$8,$9*
0 Add four rect primitives between the rounded corners*
20,1,$1+$1,$2,$3,$4,$5,0*
20,1,$1+$1,$4,$5,$6,$7,0*
20,1,$1+$1,$6,$7,$8,$9,0*
20,1,$1+$1,$8,$9,$2,$3,0*%
G04 Aperture macros list end*
%ADD10RoundRect,0.150000X-0.150000X0.587500X-0.150000X-0.587500X0.150000X-0.587500X0.150000X0.587500X0*%
%ADD11RoundRect,0.140000X-0.170000X0.140000X-0.170000X-0.140000X0.170000X-0.140000X0.170000X0.140000X0*%
%ADD12RoundRect,0.135000X-0.185000X0.135000X-0.185000X-0.135000X0.185000X-0.135000X0.185000X0.135000X0*%
%ADD13RoundRect,0.140000X-0.140000X-0.170000X0.140000X-0.170000X0.140000X0.170000X-0.140000X0.170000X0*%
%ADD14RoundRect,0.135000X0.185000X-0.135000X0.185000X0.135000X-0.185000X0.135000X-0.185000X-0.135000X0*%
%ADD15RoundRect,0.225000X-0.250000X0.225000X-0.250000X-0.225000X0.250000X-0.225000X0.250000X0.225000X0*%
%ADD16RoundRect,0.135000X-0.135000X-0.185000X0.135000X-0.185000X0.135000X0.185000X-0.135000X0.185000X0*%
%ADD17RoundRect,0.162500X-0.650000X-0.162500X0.650000X-0.162500X0.650000X0.162500X-0.650000X0.162500X0*%
%ADD18RoundRect,0.225000X0.225000X0.250000X-0.225000X0.250000X-0.225000X-0.250000X0.225000X-0.250000X0*%
%ADD19R,0.530000X0.470000*%
%ADD20RoundRect,0.250000X-0.475000X0.250000X-0.475000X-0.250000X0.475000X-0.250000X0.475000X0.250000X0*%
%ADD21RoundRect,0.250000X0.525000X0.250000X-0.525000X0.250000X-0.525000X-0.250000X0.525000X-0.250000X0*%
%ADD22RoundRect,0.150000X-0.150000X0.825000X-0.150000X-0.825000X0.150000X-0.825000X0.150000X0.825000X0*%
%ADD23RoundRect,0.140000X0.170000X-0.140000X0.170000X0.140000X-0.170000X0.140000X-0.170000X-0.140000X0*%
%ADD24RoundRect,0.140000X0.140000X0.170000X-0.140000X0.170000X-0.140000X-0.170000X0.140000X-0.170000X0*%
%ADD25RoundRect,0.150000X-0.150000X0.875000X-0.150000X-0.875000X0.150000X-0.875000X0.150000X0.875000X0*%
%ADD26RoundRect,0.250000X-0.350000X0.350000X-0.350000X-0.350000X0.350000X-0.350000X0.350000X0.350000X0*%
%ADD27RoundRect,0.055000X0.055000X0.335000X-0.055000X0.335000X-0.055000X-0.335000X0.055000X-0.335000X0*%
%ADD28RoundRect,0.055000X-0.335000X0.055000X-0.335000X-0.055000X0.335000X-0.055000X0.335000X0.055000X0*%
%ADD29R,0.133333X0.133333*%
%ADD30RoundRect,0.135000X0.135000X0.185000X-0.135000X0.185000X-0.135000X-0.185000X0.135000X-0.185000X0*%
%ADD31RoundRect,0.218750X-0.256250X0.218750X-0.256250X-0.218750X0.256250X-0.218750X0.256250X0.218750X0*%
%ADD32R,2.000000X1.000000*%
%ADD33RoundRect,0.093750X-0.156250X-0.093750X0.156250X-0.093750X0.156250X0.093750X-0.156250X0.093750X0*%
%ADD34RoundRect,0.075000X-0.250000X-0.075000X0.250000X-0.075000X0.250000X0.075000X-0.250000X0.075000X0*%
%ADD35RoundRect,0.150000X0.150000X-0.587500X0.150000X0.587500X-0.150000X0.587500X-0.150000X-0.587500X0*%
%ADD36RoundRect,0.375000X-0.625000X-0.375000X0.625000X-0.375000X0.625000X0.375000X-0.625000X0.375000X0*%
%ADD37RoundRect,0.500000X-0.500000X-1.400000X0.500000X-1.400000X0.500000X1.400000X-0.500000X1.400000X0*%
%ADD38R,1.240000X0.600000*%
%ADD39R,1.240000X0.300000*%
%ADD40RoundRect,0.250000X0.250000X0.475000X-0.250000X0.475000X-0.250000X-0.475000X0.250000X-0.475000X0*%
%ADD41R,1.700000X0.700000*%
%ADD42RoundRect,0.250000X-0.350000X0.450000X-0.350000X-0.450000X0.350000X-0.450000X0.350000X0.450000X0*%
G04 APERTURE END LIST*
D10*
%TO.C,Q5*%
X54050000Y-56062500D03*
X55950000Y-56062500D03*
X55000000Y-57937500D03*
%TD*%
D11*
%TO.C,C7*%
X79100000Y-51420000D03*
X79100000Y-52380000D03*
%TD*%
D12*
%TO.C,R48*%
X199400000Y-51590000D03*
X199400000Y-52610000D03*
%TD*%
D13*
%TO.C,C4*%
X84720000Y-45750000D03*
X85680000Y-45750000D03*
%TD*%
D14*
%TO.C,R25*%
X95400000Y-52510000D03*
X95400000Y-51490000D03*
%TD*%
%TO.C,R33*%
X385500000Y-38010000D03*
X385500000Y-36990000D03*
%TD*%
D10*
%TO.C,Q14*%
X422050000Y-56062500D03*
X423950000Y-56062500D03*
X423000000Y-57937500D03*
%TD*%
D15*
%TO.C,C27*%
X80300000Y-52225000D03*
X80300000Y-53775000D03*
%TD*%
D16*
%TO.C,R5*%
X68490000Y-46000000D03*
X69510000Y-46000000D03*
%TD*%
D17*
%TO.C,U3*%
X60962500Y-42055000D03*
X60962500Y-40785000D03*
X60962500Y-39515000D03*
X60962500Y-38245000D03*
X68137500Y-38245000D03*
X68137500Y-39515000D03*
X68137500Y-40785000D03*
X68137500Y-42055000D03*
%TD*%
D16*
%TO.C,R27*%
X54490000Y-54500000D03*
X55510000Y-54500000D03*
%TD*%
D18*
%TO.C,C29*%
X105475000Y-42600000D03*
X103925000Y-42600000D03*
%TD*%
D12*
%TO.C,R42*%
X191800000Y-51590000D03*
X191800000Y-52610000D03*
%TD*%
%TO.C,R41*%
X171800000Y-51500000D03*
X171800000Y-52520000D03*
%TD*%
D19*
%TO.C,C18*%
X72500000Y-47485000D03*
X72500000Y-48515000D03*
%TD*%
D11*
%TO.C,C3*%
X78100000Y-51420000D03*
X78100000Y-52380000D03*
%TD*%
D20*
%TO.C,C1*%
X24550000Y-37050000D03*
X24550000Y-38950000D03*
%TD*%
D21*
%TO.C,SW1*%
X35325000Y-52400000D03*
X30075000Y-52400000D03*
X35325000Y-55600000D03*
X30075000Y-55600000D03*
%TD*%
D22*
%TO.C,U6*%
X103795000Y-45625000D03*
X105065000Y-45625000D03*
X106335000Y-45625000D03*
X107605000Y-45625000D03*
X107605000Y-50575000D03*
X106335000Y-50575000D03*
X105065000Y-50575000D03*
X103795000Y-50575000D03*
%TD*%
D23*
%TO.C,C5*%
X78400000Y-38680000D03*
X78400000Y-37720000D03*
%TD*%
D14*
%TO.C,R24*%
X94400000Y-53010000D03*
X94400000Y-51990000D03*
%TD*%
D12*
%TO.C,R12*%
X89500000Y-49190000D03*
X89500000Y-50210000D03*
%TD*%
D16*
%TO.C,R18*%
X270180000Y-49000000D03*
X271200000Y-49000000D03*
%TD*%
D10*
%TO.C,Q6*%
X102050000Y-56062500D03*
X103950000Y-56062500D03*
X103000000Y-57937500D03*
%TD*%
D23*
%TO.C,C30*%
X216300000Y-47780000D03*
X216300000Y-46820000D03*
%TD*%
D14*
%TO.C,R32*%
X327500000Y-38010000D03*
X327500000Y-36990000D03*
%TD*%
%TO.C,R13*%
X90500000Y-50210000D03*
X90500000Y-49190000D03*
%TD*%
D13*
%TO.C,C21*%
X89670000Y-47650000D03*
X90630000Y-47650000D03*
%TD*%
D16*
%TO.C,R40*%
X494490000Y-54500000D03*
X495510000Y-54500000D03*
%TD*%
D14*
%TO.C,R50*%
X191800000Y-38410000D03*
X191800000Y-37390000D03*
%TD*%
D16*
%TO.C,R15*%
X87090000Y-48700000D03*
X88110000Y-48700000D03*
%TD*%
D12*
%TO.C,R46*%
X196900000Y-51590000D03*
X196900000Y-52610000D03*
%TD*%
D24*
%TO.C,C14*%
X72480000Y-42900000D03*
X71520000Y-42900000D03*
%TD*%
D25*
%TO.C,U8*%
X169285000Y-40350000D03*
X170555000Y-40350000D03*
X171825000Y-40350000D03*
X173095000Y-40350000D03*
X174365000Y-40350000D03*
X175635000Y-40350000D03*
X176905000Y-40350000D03*
X178175000Y-40350000D03*
X179445000Y-40350000D03*
X180715000Y-40350000D03*
X180715000Y-49650000D03*
X179445000Y-49650000D03*
X178175000Y-49650000D03*
X176905000Y-49650000D03*
X175635000Y-49650000D03*
X174365000Y-49650000D03*
X173095000Y-49650000D03*
X171825000Y-49650000D03*
X170555000Y-49650000D03*
X169285000Y-49650000D03*
%TD*%
D10*
%TO.C,Q8*%
X198050000Y-56062500D03*
X199950000Y-56062500D03*
X199000000Y-57937500D03*
%TD*%
D26*
%TO.C,U4*%
X79300000Y-44196500D03*
X77900000Y-44196500D03*
X79300000Y-45596500D03*
X77900000Y-45596500D03*
D27*
X74800000Y-40000000D03*
X75200000Y-40000000D03*
X75600000Y-40000000D03*
X76000000Y-40000000D03*
X76400000Y-40000000D03*
X76800000Y-40000000D03*
X77200000Y-40000000D03*
X77600000Y-40000000D03*
X78000000Y-40000000D03*
X78400000Y-40000000D03*
X78800000Y-40000000D03*
X79200000Y-40000000D03*
X79600000Y-40000000D03*
X80000000Y-40000000D03*
X80400000Y-40000000D03*
X80800000Y-40000000D03*
X81200000Y-40000000D03*
X81600000Y-40000000D03*
X82000000Y-40000000D03*
X82400000Y-40000000D03*
D28*
X83496500Y-41096500D03*
X83496500Y-41496500D03*
X83496500Y-41896500D03*
X83496500Y-42296500D03*
X83496500Y-42696500D03*
X83496500Y-43096500D03*
X83496500Y-43496500D03*
X83496500Y-43896500D03*
X83496500Y-44296500D03*
X83496500Y-44696500D03*
X83496500Y-45096500D03*
X83496500Y-45496500D03*
X83496500Y-45896500D03*
X83496500Y-46296500D03*
X83496500Y-46696500D03*
X83496500Y-47096500D03*
X83496500Y-47496500D03*
X83496500Y-47896500D03*
X83496500Y-48296500D03*
X83496500Y-48696500D03*
D27*
X82400000Y-49793000D03*
X82000000Y-49793000D03*
X81600000Y-49793000D03*
X81200000Y-49793000D03*
X80800000Y-49793000D03*
X80400000Y-49793000D03*
X80000000Y-49793000D03*
X79600000Y-49793000D03*
X79200000Y-49793000D03*
X78800000Y-49793000D03*
X78400000Y-49793000D03*
X78000000Y-49793000D03*
X77600000Y-49793000D03*
X77200000Y-49793000D03*
X76800000Y-49793000D03*
X76400000Y-49793000D03*
X76000000Y-49793000D03*
X75600000Y-49793000D03*
X75200000Y-49793000D03*
X74800000Y-49793000D03*
D28*
X73703500Y-48696500D03*
X73703500Y-48296500D03*
X73703500Y-47896500D03*
X73703500Y-47496500D03*
X73703500Y-47096500D03*
X73703500Y-46696500D03*
X73703500Y-46296500D03*
X73703500Y-45896500D03*
X73703500Y-45496500D03*
X73703500Y-45096500D03*
X73703500Y-44696500D03*
X73703500Y-44296500D03*
X73703500Y-43896500D03*
X73703500Y-43496500D03*
X73703500Y-43096500D03*
X73703500Y-42696500D03*
X73703500Y-42296500D03*
X73703500Y-41896500D03*
X73703500Y-41496500D03*
X73703500Y-41096500D03*
D29*
X79733333Y-43763167D03*
X78600000Y-43763167D03*
X77466667Y-43763167D03*
X79733333Y-44896500D03*
X78600000Y-44896500D03*
X77466667Y-44896500D03*
X79733333Y-46029833D03*
X78600000Y-46029833D03*
X77466667Y-46029833D03*
%TD*%
D14*
%TO.C,R17*%
X71500000Y-41310000D03*
X71500000Y-40290000D03*
%TD*%
%TO.C,R16*%
X72500000Y-41310000D03*
X72500000Y-40290000D03*
%TD*%
D10*
%TO.C,Q9*%
X246050000Y-56062500D03*
X247950000Y-56062500D03*
X247000000Y-57937500D03*
%TD*%
D12*
%TO.C,R9*%
X73500000Y-36590000D03*
X73500000Y-37610000D03*
%TD*%
D13*
%TO.C,C11*%
X85020000Y-42000000D03*
X85980000Y-42000000D03*
%TD*%
D10*
%TO.C,Q7*%
X150050000Y-56062500D03*
X151950000Y-56062500D03*
X151000000Y-57937500D03*
%TD*%
D30*
%TO.C,R23*%
X133310000Y-43200000D03*
X132290000Y-43200000D03*
%TD*%
D11*
%TO.C,C23*%
X76100000Y-51420000D03*
X76100000Y-52380000D03*
%TD*%
D30*
%TO.C,R7*%
X84810000Y-36400000D03*
X83790000Y-36400000D03*
%TD*%
D24*
%TO.C,C16*%
X68130000Y-43600000D03*
X67170000Y-43600000D03*
%TD*%
D30*
%TO.C,R1*%
X23310000Y-46800000D03*
X22290000Y-46800000D03*
%TD*%
D14*
%TO.C,R3*%
X72500000Y-51960000D03*
X72500000Y-50940000D03*
%TD*%
D11*
%TO.C,C26*%
X110300000Y-49940000D03*
X110300000Y-50900000D03*
%TD*%
D25*
%TO.C,U9*%
X189285000Y-40350000D03*
X190555000Y-40350000D03*
X191825000Y-40350000D03*
X193095000Y-40350000D03*
X194365000Y-40350000D03*
X195635000Y-40350000D03*
X196905000Y-40350000D03*
X198175000Y-40350000D03*
X199445000Y-40350000D03*
X200715000Y-40350000D03*
X200715000Y-49650000D03*
X199445000Y-49650000D03*
X198175000Y-49650000D03*
X196905000Y-49650000D03*
X195635000Y-49650000D03*
X194365000Y-49650000D03*
X193095000Y-49650000D03*
X191825000Y-49650000D03*
X190555000Y-49650000D03*
X189285000Y-49650000D03*
%TD*%
D12*
%TO.C,R43*%
X174400000Y-51490000D03*
X174400000Y-52510000D03*
%TD*%
D16*
%TO.C,R39*%
X470490000Y-54500000D03*
X471510000Y-54500000D03*
%TD*%
D31*
%TO.C,D1*%
X109900000Y-42100000D03*
X109900000Y-43675000D03*
%TD*%
D30*
%TO.C,R37*%
X381510000Y-60000000D03*
X380490000Y-60000000D03*
%TD*%
D13*
%TO.C,C10*%
X84727564Y-44290836D03*
X85687564Y-44290836D03*
%TD*%
D32*
%TO.C,U5*%
X112000000Y-49750000D03*
X112000000Y-48250000D03*
X112000000Y-46750000D03*
X112000000Y-45250000D03*
X112000000Y-43750000D03*
X112000000Y-42250000D03*
X112000000Y-40750000D03*
X112000000Y-39250000D03*
X112000000Y-37750000D03*
X112000000Y-36250000D03*
X128000000Y-36250000D03*
X128000000Y-37750000D03*
X128000000Y-39250000D03*
X128000000Y-40750000D03*
X128000000Y-42250000D03*
X128000000Y-43750000D03*
X128000000Y-45250000D03*
X128000000Y-46750000D03*
X128000000Y-48250000D03*
X128000000Y-49750000D03*
%TD*%
D24*
%TO.C,C20*%
X90630000Y-42350000D03*
X89670000Y-42350000D03*
%TD*%
D23*
%TO.C,C33*%
X229800000Y-47780000D03*
X229800000Y-46820000D03*
%TD*%
D14*
%TO.C,R22*%
X131400000Y-50172500D03*
X131400000Y-49152500D03*
%TD*%
D10*
%TO.C,Q4*%
X131850000Y-44725000D03*
X133750000Y-44725000D03*
X132800000Y-46600000D03*
%TD*%
D19*
%TO.C,C19*%
X71500000Y-47485000D03*
X71500000Y-48515000D03*
%TD*%
D11*
%TO.C,C8*%
X74450000Y-50970000D03*
X74450000Y-51930000D03*
%TD*%
D12*
%TO.C,R47*%
X179400000Y-51490000D03*
X179400000Y-52510000D03*
%TD*%
D23*
%TO.C,C12*%
X80200000Y-38680000D03*
X80200000Y-37720000D03*
%TD*%
D14*
%TO.C,R56*%
X199400000Y-38410000D03*
X199400000Y-37390000D03*
%TD*%
D16*
%TO.C,R38*%
X422490000Y-54500000D03*
X423510000Y-54500000D03*
%TD*%
D33*
%TO.C,U2*%
X22550000Y-45537500D03*
D34*
X22475000Y-45000000D03*
D33*
X22550000Y-44462500D03*
X24250000Y-44462500D03*
D34*
X24325000Y-45000000D03*
D33*
X24250000Y-45537500D03*
%TD*%
D16*
%TO.C,R11*%
X86890000Y-45400000D03*
X87910000Y-45400000D03*
%TD*%
D12*
%TO.C,R45*%
X176900000Y-51490000D03*
X176900000Y-52510000D03*
%TD*%
D24*
%TO.C,C28*%
X104660000Y-43900000D03*
X103700000Y-43900000D03*
%TD*%
D10*
%TO.C,Q16*%
X494050000Y-56062500D03*
X495950000Y-56062500D03*
X495000000Y-57937500D03*
%TD*%
D11*
%TO.C,C22*%
X77100000Y-51420000D03*
X77100000Y-52380000D03*
%TD*%
D14*
%TO.C,R49*%
X171700000Y-38410000D03*
X171700000Y-37390000D03*
%TD*%
D22*
%TO.C,U10*%
X231155000Y-42525000D03*
X232425000Y-42525000D03*
X233695000Y-42525000D03*
X234965000Y-42525000D03*
X236235000Y-42525000D03*
X237505000Y-42525000D03*
X238775000Y-42525000D03*
X240045000Y-42525000D03*
X240045000Y-47475000D03*
X238775000Y-47475000D03*
X237505000Y-47475000D03*
X236235000Y-47475000D03*
X234965000Y-47475000D03*
X233695000Y-47475000D03*
X232425000Y-47475000D03*
X231155000Y-47475000D03*
%TD*%
D23*
%TO.C,C32*%
X187700000Y-49580000D03*
X187700000Y-48620000D03*
%TD*%
D14*
%TO.C,R54*%
X196900000Y-38410000D03*
X196900000Y-37390000D03*
%TD*%
D10*
%TO.C,Q3*%
X132750000Y-48725000D03*
X134650000Y-48725000D03*
X133700000Y-50600000D03*
%TD*%
D16*
%TO.C,R36*%
X364490000Y-54500000D03*
X365510000Y-54500000D03*
%TD*%
D30*
%TO.C,R8*%
X84810000Y-35400000D03*
X83790000Y-35400000D03*
%TD*%
D14*
%TO.C,R55*%
X179400000Y-38410000D03*
X179400000Y-37390000D03*
%TD*%
D35*
%TO.C,Q13*%
X381950000Y-58375000D03*
X380050000Y-58375000D03*
X381000000Y-56500000D03*
%TD*%
D30*
%TO.C,R2*%
X23310000Y-43200000D03*
X22290000Y-43200000D03*
%TD*%
D16*
%TO.C,R29*%
X150480000Y-54500000D03*
X151500000Y-54500000D03*
%TD*%
%TO.C,R4*%
X68490000Y-45000000D03*
X69510000Y-45000000D03*
%TD*%
D10*
%TO.C,Q12*%
X364050000Y-56062500D03*
X365950000Y-56062500D03*
X365000000Y-57937500D03*
%TD*%
D23*
%TO.C,C13*%
X75800000Y-38780000D03*
X75800000Y-37820000D03*
%TD*%
D16*
%TO.C,R31*%
X246490000Y-54500000D03*
X247510000Y-54500000D03*
%TD*%
D23*
%TO.C,C31*%
X167700000Y-49580000D03*
X167700000Y-48620000D03*
%TD*%
D14*
%TO.C,R10*%
X107600000Y-42910000D03*
X107600000Y-41890000D03*
%TD*%
D24*
%TO.C,C24*%
X510580000Y-57400000D03*
X509620000Y-57400000D03*
%TD*%
D36*
%TO.C,U1*%
X27250000Y-40300000D03*
X27250000Y-38000000D03*
D37*
X33550000Y-38000000D03*
D36*
X27250000Y-35700000D03*
%TD*%
D21*
%TO.C,SW2*%
X42725000Y-52400000D03*
X37475000Y-52400000D03*
X42725000Y-55600000D03*
X37475000Y-55600000D03*
%TD*%
D14*
%TO.C,R51*%
X174300000Y-38410000D03*
X174300000Y-37390000D03*
%TD*%
D20*
%TO.C,C2*%
X36050000Y-38100000D03*
X36050000Y-40000000D03*
%TD*%
D10*
%TO.C,Q10*%
X306050000Y-56062500D03*
X307950000Y-56062500D03*
X307000000Y-57937500D03*
%TD*%
D12*
%TO.C,R19*%
X16000000Y-31490000D03*
X16000000Y-32510000D03*
%TD*%
D35*
%TO.C,Q11*%
X323950000Y-58437500D03*
X322050000Y-58437500D03*
X323000000Y-56562500D03*
%TD*%
D38*
%TO.C,J1*%
X20590000Y-48200000D03*
X20590000Y-47400000D03*
D39*
X20590000Y-46250000D03*
X20590000Y-45250000D03*
X20590000Y-44750000D03*
X20590000Y-43750000D03*
D38*
X20590000Y-42600000D03*
X20590000Y-41800000D03*
X20590000Y-41800000D03*
X20590000Y-42600000D03*
D39*
X20590000Y-43250000D03*
X20590000Y-44250000D03*
X20590000Y-45750000D03*
X20590000Y-46750000D03*
D38*
X20590000Y-47400000D03*
X20590000Y-48200000D03*
%TD*%
D24*
%TO.C,C17*%
X72480000Y-49950000D03*
X71520000Y-49950000D03*
%TD*%
D16*
%TO.C,R14*%
X87090000Y-47700000D03*
X88110000Y-47700000D03*
%TD*%
D30*
%TO.C,R6*%
X59310000Y-42000000D03*
X58290000Y-42000000D03*
%TD*%
D40*
%TO.C,C6*%
X72450000Y-53500000D03*
X70550000Y-53500000D03*
%TD*%
D41*
%TO.C,L1*%
X69800000Y-47300000D03*
X69800000Y-48700000D03*
%TD*%
D14*
%TO.C,R52*%
X194400000Y-38410000D03*
X194400000Y-37390000D03*
%TD*%
D12*
%TO.C,R20*%
X510000000Y-31590000D03*
X510000000Y-32610000D03*
%TD*%
D10*
%TO.C,Q15*%
X470050000Y-56062500D03*
X471950000Y-56062500D03*
X471000000Y-57937500D03*
%TD*%
D14*
%TO.C,R53*%
X176800000Y-38410000D03*
X176800000Y-37390000D03*
%TD*%
D12*
%TO.C,R44*%
X194400000Y-51590000D03*
X194400000Y-52610000D03*
%TD*%
%TO.C,R21*%
X109900000Y-39890000D03*
X109900000Y-40910000D03*
%TD*%
D16*
%TO.C,R30*%
X198490000Y-54500000D03*
X199510000Y-54500000D03*
%TD*%
D24*
%TO.C,C25*%
X510580000Y-46900000D03*
X509620000Y-46900000D03*
%TD*%
D16*
%TO.C,R34*%
X306490000Y-54500000D03*
X307510000Y-54500000D03*
%TD*%
D42*
%TO.C,Y1*%
X91000000Y-43900000D03*
X91000000Y-46100000D03*
X89300000Y-46100000D03*
X89300000Y-43900000D03*
%TD*%
D11*
%TO.C,C9*%
X82700000Y-51070000D03*
X82700000Y-52030000D03*
%TD*%
D24*
%TO.C,C15*%
X72430000Y-45400000D03*
X71470000Y-45400000D03*
%TD*%
D30*
%TO.C,R35*%
X323510000Y-60000000D03*
X322490000Y-60000000D03*
%TD*%
D16*
%TO.C,R28*%
X102490000Y-54500000D03*
X103510000Y-54500000D03*
%TD*%
D30*
%TO.C,R26*%
X106610000Y-43900000D03*
X105590000Y-43900000D03*
%TD*%
D22*
%TO.C,U7*%
X217655000Y-42525000D03*
X218925000Y-42525000D03*
X220195000Y-42525000D03*
X221465000Y-42525000D03*
X222735000Y-42525000D03*
X224005000Y-42525000D03*
X225275000Y-42525000D03*
X226545000Y-42525000D03*
X226545000Y-47475000D03*
X225275000Y-47475000D03*
X224005000Y-47475000D03*
X222735000Y-47475000D03*
X221465000Y-47475000D03*
X220195000Y-47475000D03*
X218925000Y-47475000D03*
X217655000Y-47475000D03*
%TD*%
M02*
