%TF.GenerationSoftware,KiCad,Pcbnew,9.0.5*%
%TF.CreationDate,2025-11-17T21:05:12-05:00*%
%TF.ProjectId,precision-clock,70726563-6973-4696-9f6e-2d636c6f636b,rev?*%
%TF.SameCoordinates,Original*%
%TF.FileFunction,Soldermask,Top*%
%TF.FilePolarity,Negative*%
%FSLAX46Y46*%
G04 Gerber Fmt 4.6, Leading zero omitted, Abs format (unit mm)*
G04 Created by KiCad (PCBNEW 9.0.5) date 2025-11-17 21:05:12*
%MOMM*%
%LPD*%
G01*
G04 APERTURE LIST*
G04 Aperture macros list*
%AMRoundRect*
0 Rectangle with rounded corners*
0 $1 Rounding radius*
0 $2 $3 $4 $5 $6 $7 $8 $9 X,Y pos of 4 corners*
0 Add a 4 corners polygon primitive as box body*
4,1,4,$2,$3,$4,$5,$6,$7,$8,$9,$2,$3,0*
0 Add four circle primitives for the rounded corners*
1,1,$1+$1,$2,$3*
1,1,$1+$1,$4,$5*
1,1,$1+$1,$6,$7*
1,1,$1+$1,$8,$9*
0 Add four rect primitives between the rounded corners*
20,1,$1+$1,$2,$3,$4,$5,0*
20,1,$1+$1,$4,$5,$6,$7,0*
20,1,$1+$1,$6,$7,$8,$9,0*
20,1,$1+$1,$8,$9,$2,$3,0*%
G04 Aperture macros list end*
%ADD10C,1.600000*%
%ADD11RoundRect,0.250000X0.250000X-0.525000X0.250000X0.525000X-0.250000X0.525000X-0.250000X-0.525000X0*%
%ADD12RoundRect,0.250000X1.050000X-0.500000X1.050000X0.500000X-1.050000X0.500000X-1.050000X-0.500000X0*%
%ADD13R,1.800000X1.800000*%
%ADD14C,1.800000*%
%ADD15C,2.374900*%
%ADD16C,0.990600*%
%ADD17C,2.979000*%
%ADD18C,0.650000*%
%ADD19O,1.800000X1.000000*%
%ADD20O,2.100000X1.000000*%
%ADD21C,1.240000*%
G04 APERTURE END LIST*
D10*
%TO.C,DS4*%
X97920000Y-60200000D03*
X100460000Y-60200000D03*
X103000000Y-60200000D03*
X105540000Y-60200000D03*
X108080000Y-60200000D03*
X108080000Y-29800000D03*
X105540000Y-29800000D03*
X103000000Y-29800000D03*
X100460000Y-29800000D03*
X97920000Y-29800000D03*
%TD*%
%TO.C,DS11*%
X277920000Y-60200000D03*
X280460000Y-60200000D03*
X283000000Y-60200000D03*
X285540000Y-60200000D03*
X288080000Y-60200000D03*
X288080000Y-29800000D03*
X285540000Y-29800000D03*
X283000000Y-29800000D03*
X280460000Y-29800000D03*
X277920000Y-29800000D03*
%TD*%
D11*
%TO.C,SW4*%
X508500000Y-46750000D03*
X508500000Y-41500000D03*
X511700000Y-46750000D03*
X511700000Y-41500000D03*
%TD*%
D12*
%TO.C,Q1*%
X16000000Y-34500000D03*
X16000000Y-31500000D03*
%TD*%
D13*
%TO.C,D2*%
X323000000Y-38000000D03*
D14*
X325540000Y-38000000D03*
%TD*%
D10*
%TO.C,DS3*%
X73920000Y-60200000D03*
X76460000Y-60200000D03*
X79000000Y-60200000D03*
X81540000Y-60200000D03*
X84080000Y-60200000D03*
X84080000Y-29800000D03*
X81540000Y-29800000D03*
X79000000Y-29800000D03*
X76460000Y-29800000D03*
X73920000Y-29800000D03*
%TD*%
%TO.C,DS1*%
X25920000Y-60200000D03*
X28460000Y-60200000D03*
X31000000Y-60200000D03*
X33540000Y-60200000D03*
X36080000Y-60200000D03*
X36080000Y-29800000D03*
X33540000Y-29800000D03*
X31000000Y-29800000D03*
X28460000Y-29800000D03*
X25920000Y-29800000D03*
%TD*%
D11*
%TO.C,SW3*%
X508500000Y-57250000D03*
X508500000Y-52000000D03*
X511700000Y-57250000D03*
X511700000Y-52000000D03*
%TD*%
D10*
%TO.C,DS16*%
X417920000Y-60200000D03*
X420460000Y-60200000D03*
X423000000Y-60200000D03*
X425540000Y-60200000D03*
X428080000Y-60200000D03*
X428080000Y-29800000D03*
X425540000Y-29800000D03*
X423000000Y-29800000D03*
X420460000Y-29800000D03*
X417920000Y-29800000D03*
%TD*%
%TO.C,DS8*%
X193920000Y-60200000D03*
X196460000Y-60200000D03*
X199000000Y-60200000D03*
X201540000Y-60200000D03*
X204080000Y-60200000D03*
X204080000Y-29800000D03*
X201540000Y-29800000D03*
X199000000Y-29800000D03*
X196460000Y-29800000D03*
X193920000Y-29800000D03*
%TD*%
%TO.C,DS17*%
X441920000Y-60200000D03*
X444460000Y-60200000D03*
X447000000Y-60200000D03*
X449540000Y-60200000D03*
X452080000Y-60200000D03*
X452080000Y-29800000D03*
X449540000Y-29800000D03*
X447000000Y-29800000D03*
X444460000Y-29800000D03*
X441920000Y-29800000D03*
%TD*%
%TO.C,DS2*%
X49920000Y-60200000D03*
X52460000Y-60200000D03*
X55000000Y-60200000D03*
X57540000Y-60200000D03*
X60080000Y-60200000D03*
X60080000Y-29800000D03*
X57540000Y-29800000D03*
X55000000Y-29800000D03*
X52460000Y-29800000D03*
X49920000Y-29800000D03*
%TD*%
%TO.C,DS18*%
X465920000Y-60200000D03*
X468460000Y-60200000D03*
X471000000Y-60200000D03*
X473540000Y-60200000D03*
X476080000Y-60200000D03*
X476080000Y-29800000D03*
X473540000Y-29800000D03*
X471000000Y-29800000D03*
X468460000Y-29800000D03*
X465920000Y-29800000D03*
%TD*%
%TO.C,DS5*%
X121920000Y-60200000D03*
X124460000Y-60200000D03*
X127000000Y-60200000D03*
X129540000Y-60200000D03*
X132080000Y-60200000D03*
X132080000Y-29800000D03*
X129540000Y-29800000D03*
X127000000Y-29800000D03*
X124460000Y-29800000D03*
X121920000Y-29800000D03*
%TD*%
%TO.C,DS9*%
X217920000Y-60200000D03*
X220460000Y-60200000D03*
X223000000Y-60200000D03*
X225540000Y-60200000D03*
X228080000Y-60200000D03*
X228080000Y-29800000D03*
X225540000Y-29800000D03*
X223000000Y-29800000D03*
X220460000Y-29800000D03*
X217920000Y-29800000D03*
%TD*%
%TO.C,DS7*%
X169920000Y-60200000D03*
X172460000Y-60200000D03*
X175000000Y-60200000D03*
X177540000Y-60200000D03*
X180080000Y-60200000D03*
X180080000Y-29800000D03*
X177540000Y-29800000D03*
X175000000Y-29800000D03*
X172460000Y-29800000D03*
X169920000Y-29800000D03*
%TD*%
D13*
%TO.C,D3*%
X381000000Y-38000000D03*
D14*
X383540000Y-38000000D03*
%TD*%
D10*
%TO.C,DS10*%
X241920000Y-60200000D03*
X244460000Y-60200000D03*
X247000000Y-60200000D03*
X249540000Y-60200000D03*
X252080000Y-60200000D03*
X252080000Y-29800000D03*
X249540000Y-29800000D03*
X247000000Y-29800000D03*
X244460000Y-29800000D03*
X241920000Y-29800000D03*
%TD*%
D12*
%TO.C,Q2*%
X510000000Y-34500000D03*
X510000000Y-31500000D03*
%TD*%
D13*
%TO.C,D5*%
X381000000Y-52000000D03*
D14*
X383540000Y-52000000D03*
%TD*%
D10*
%TO.C,DS13*%
X335920000Y-60200000D03*
X338460000Y-60200000D03*
X341000000Y-60200000D03*
X343540000Y-60200000D03*
X346080000Y-60200000D03*
X346080000Y-29800000D03*
X343540000Y-29800000D03*
X341000000Y-29800000D03*
X338460000Y-29800000D03*
X335920000Y-29800000D03*
%TD*%
D13*
%TO.C,D4*%
X323000000Y-52000000D03*
D14*
X325540000Y-52000000D03*
%TD*%
D10*
%TO.C,DS14*%
X359920000Y-60200000D03*
X362460000Y-60200000D03*
X365000000Y-60200000D03*
X367540000Y-60200000D03*
X370080000Y-60200000D03*
X370080000Y-29800000D03*
X367540000Y-29800000D03*
X365000000Y-29800000D03*
X362460000Y-29800000D03*
X359920000Y-29800000D03*
%TD*%
%TO.C,DS12*%
X301920000Y-60200000D03*
X304460000Y-60200000D03*
X307000000Y-60200000D03*
X309540000Y-60200000D03*
X312080000Y-60200000D03*
X312080000Y-29800000D03*
X309540000Y-29800000D03*
X307000000Y-29800000D03*
X304460000Y-29800000D03*
X301920000Y-29800000D03*
%TD*%
%TO.C,DS19*%
X489920000Y-60200000D03*
X492460000Y-60200000D03*
X495000000Y-60200000D03*
X497540000Y-60200000D03*
X500080000Y-60200000D03*
X500080000Y-29800000D03*
X497540000Y-29800000D03*
X495000000Y-29800000D03*
X492460000Y-29800000D03*
X489920000Y-29800000D03*
%TD*%
%TO.C,DS6*%
X145920000Y-60200000D03*
X148460000Y-60200000D03*
X151000000Y-60200000D03*
X153540000Y-60200000D03*
X156080000Y-60200000D03*
X156080000Y-29800000D03*
X153540000Y-29800000D03*
X151000000Y-29800000D03*
X148460000Y-29800000D03*
X145920000Y-29800000D03*
%TD*%
%TO.C,DS15*%
X393920000Y-60200000D03*
X396460000Y-60200000D03*
X399000000Y-60200000D03*
X401540000Y-60200000D03*
X404080000Y-60200000D03*
X404080000Y-29800000D03*
X401540000Y-29800000D03*
X399000000Y-29800000D03*
X396460000Y-29800000D03*
X393920000Y-29800000D03*
%TD*%
D15*
%TO.C,J2*%
X267540000Y-41190000D03*
D16*
X265000000Y-41190000D03*
D15*
X262460000Y-41190000D03*
X267540000Y-46905000D03*
X262460000Y-46905000D03*
D16*
X266016000Y-48810000D03*
X263984000Y-48810000D03*
%TD*%
D17*
%TO.C,BT1*%
X143000000Y-36400000D03*
X143000000Y-49600000D03*
%TD*%
D18*
%TO.C,J1*%
X19470000Y-47890000D03*
X19470000Y-42110000D03*
D19*
X15790000Y-49320000D03*
D20*
X19990000Y-49320000D03*
D19*
X15790000Y-40680000D03*
D20*
X19990000Y-40680000D03*
%TD*%
D21*
%TO.C,J3*%
X131800000Y-36200000D03*
X133070000Y-37470000D03*
X133070000Y-34930000D03*
X130530000Y-37470000D03*
X130530000Y-34930000D03*
%TD*%
M02*
