M48
; DRILL file {KiCad 9.0.5} date 2025-11-15T15:20:12-0500
; FORMAT={-:-/ absolute / metric / decimal}
; #@! TF.CreationDate,2025-11-15T15:20:12-05:00
; #@! TF.GenerationSoftware,Kicad,Pcbnew,9.0.5
; #@! TF.FileFunction,Plated,1,4,PTH
FMAT,2
METRIC
; #@! TA.AperFunction,Plated,PTH,ViaDrill
T1C0.250
; #@! TA.AperFunction,Plated,PTH,ComponentDrill
T2C0.250
; #@! TA.AperFunction,Plated,PTH,ViaDrill
T3C0.300
; #@! TA.AperFunction,Plated,PTH,ViaDrill
T4C0.400
; #@! TA.AperFunction,Plated,PTH,ComponentDrill
T5C0.600
; #@! TA.AperFunction,Plated,PTH,ComponentDrill
T6C0.840
; #@! TA.AperFunction,Plated,PTH,ComponentDrill
T7C0.900
; #@! TA.AperFunction,Plated,PTH,ComponentDrill
T8C1.000
; #@! TA.AperFunction,Plated,PTH,ComponentDrill
T9C1.850
%
G90
G05
T1
X72.511Y-47.496
X76.3Y-36.9
X76.834Y-37.114
X77.4Y-37.4
X77.7Y-38.0
X79.2Y-36.3
X79.6Y-40.8
X79.758Y-36.439
X80.3Y-40.9
X86.7Y-39.9
X87.3Y-40.0
X88.0Y-40.0
X88.8Y-40.0
X105.5Y-39.7
X105.979Y-39.31
X106.499Y-39.064
X106.986Y-38.757
X107.5Y-38.5
X108.071Y-38.295
X108.24Y-37.745
X108.7Y-37.4
T2
X77.467Y-43.763
X77.467Y-44.896
X77.467Y-46.03
X78.6Y-43.763
X78.6Y-44.896
X78.6Y-46.03
X79.733Y-43.763
X79.733Y-44.896
X79.733Y-46.03
T3
X16.0Y-31.5
X16.0Y-32.8
X16.0Y-34.5
X21.6Y-48.2
X22.2Y-41.6
X23.31Y-43.2
X23.31Y-46.8
X23.4Y-45.0
X24.55Y-38.95
X25.4Y-45.0
X27.25Y-40.3
X28.5Y-31.455
X28.5Y-58.523
X29.6Y-50.6
X31.0Y-41.4
X33.5Y-58.023
X33.54Y-31.977
X36.05Y-40.0
X36.08Y-32.477
X36.08Y-57.523
X36.4Y-52.4
X49.92Y-32.977
X49.92Y-57.0
X52.46Y-33.477
X52.46Y-56.523
X56.0Y-55.0
X57.54Y-33.977
X57.54Y-56.012
X58.2Y-43.0
X58.2Y-48.4
X60.962Y-38.245
X66.2Y-35.4
X66.2Y-55.2
X67.17Y-43.6
X68.13Y-42.8
X68.6Y-52.0
X70.55Y-53.5
X71.47Y-45.4
X71.52Y-42.9
X71.52Y-49.95
X72.0Y-48.6
X72.43Y-45.4
X72.45Y-53.5
X72.48Y-42.9
X74.45Y-51.93
X75.8Y-37.82
X75.8Y-38.78
X76.46Y-31.455
X76.46Y-58.523
X76.6Y-52.4
X77.6Y-52.4
X77.873Y-50.657
X78.4Y-37.72
X78.6Y-52.4
X79.1Y-51.42
X80.2Y-37.72
X80.2Y-38.68
X80.3Y-53.775
X81.54Y-31.977
X81.54Y-58.023
X82.6Y-47.8
X82.7Y-51.07
X82.7Y-52.03
X84.08Y-32.477
X84.08Y-57.523
X84.722Y-44.296
X84.723Y-49.077
X84.8Y-49.8
X85.02Y-42.0
X85.4Y-52.1
X85.68Y-45.75
X85.688Y-44.291
X85.98Y-42.0
X86.3Y-51.4
X88.6Y-54.4
X89.67Y-42.35
X90.0Y-53.6
X90.63Y-47.65
X92.9Y-51.9
X94.9Y-51.49
X95.97Y-47.91
X96.2Y-48.6
X97.9Y-57.023
X97.92Y-32.977
X100.46Y-33.477
X100.46Y-56.512
X101.5Y-47.2
X103.6Y-43.4
X103.8Y-54.4
X105.475Y-42.6
X105.54Y-33.977
X105.54Y-56.023
X107.6Y-49.4
X110.3Y-49.94
X110.4Y-47.4
X110.4Y-51.8
X114.0Y-41.6
X115.0Y-41.6
X124.46Y-31.455
X124.46Y-58.523
X126.2Y-47.6
X126.4Y-37.6
X129.54Y-31.977
X129.54Y-58.023
X129.8Y-47.6
X130.8Y-46.8
X132.08Y-32.477
X132.08Y-57.5
X134.4Y-46.6
X134.8Y-51.8
X145.9Y-57.023
X145.92Y-32.977
X148.46Y-33.477
X148.46Y-56.523
X151.8Y-38.2
X151.8Y-46.6
X151.8Y-54.4
X152.163Y-34.501
X152.2Y-35.227
X153.0Y-51.4
X153.0Y-53.8
X153.54Y-33.977
X153.54Y-56.023
X163.5Y-52.3
X163.544Y-53.393
X164.0Y-52.827
X165.4Y-32.477
X166.6Y-32.0
X167.8Y-50.4
X169.2Y-38.6
X170.5Y-38.8
X172.46Y-31.455
X172.46Y-58.523
X173.0Y-42.2
X173.1Y-38.7
X175.5Y-42.8
X175.7Y-38.7
X176.3Y-30.823
X177.54Y-31.977
X177.54Y-58.023
X178.0Y-43.0
X178.2Y-38.7
X180.08Y-32.477
X180.08Y-57.523
X180.7Y-43.8
X180.715Y-40.35
X181.8Y-58.5
X183.1Y-57.523
X184.4Y-29.8
X185.7Y-28.722
X186.7Y-33.905
X187.6Y-29.8
X187.6Y-50.2
X189.285Y-40.35
X190.5Y-42.5
X193.095Y-46.0
X193.1Y-42.2
X193.4Y-33.5
X193.9Y-57.023
X193.92Y-32.977
X195.6Y-42.5
X195.6Y-46.6
X196.46Y-33.477
X196.46Y-56.523
X196.9Y-55.945
X198.2Y-42.1
X198.2Y-47.1
X198.5Y-54.0
X199.51Y-54.423
X200.715Y-40.35
X200.8Y-47.6
X201.54Y-33.977
X201.54Y-56.023
X202.9Y-56.523
X216.8Y-43.573
X217.0Y-47.78
X218.4Y-52.3
X218.8Y-44.1
X220.2Y-44.773
X220.2Y-51.6
X220.46Y-31.455
X220.46Y-58.523
X221.465Y-51.4
X221.5Y-45.9
X222.7Y-45.3
X222.8Y-51.4
X224.0Y-40.8
X225.54Y-31.977
X225.54Y-58.023
X226.545Y-42.525
X228.08Y-32.48
X228.08Y-57.523
X230.4Y-47.78
X230.773Y-43.573
X232.4Y-44.0
X233.7Y-44.2
X235.0Y-45.9
X237.5Y-44.3
X240.045Y-42.525
X241.9Y-57.023
X241.92Y-32.977
X242.2Y-50.8
X243.2Y-51.6
X244.46Y-33.477
X244.46Y-56.523
X247.51Y-54.5
X248.6Y-51.2
X249.54Y-33.977
X249.54Y-56.023
X257.8Y-34.573
X259.2Y-35.6
X260.77Y-43.51
X261.0Y-44.2
X267.6Y-50.2
X270.2Y-42.0
X270.4Y-43.6
X270.4Y-44.8
X271.2Y-34.6
X280.46Y-31.455
X280.46Y-58.523
X285.54Y-31.977
X285.54Y-58.023
X288.08Y-32.477
X288.08Y-57.523
X301.9Y-57.023
X301.92Y-32.977
X304.46Y-33.477
X304.46Y-56.523
X307.6Y-53.6
X308.6Y-48.4
X308.6Y-51.4
X309.54Y-33.977
X309.54Y-56.023
X312.3Y-55.3
X321.0Y-59.8
X327.4Y-34.6
X338.46Y-31.455
X338.46Y-58.523
X343.54Y-31.977
X343.54Y-58.023
X346.08Y-32.477
X346.08Y-57.523
X359.9Y-57.023
X359.92Y-32.977
X360.0Y-51.3
X362.46Y-33.477
X362.46Y-56.523
X362.9Y-51.1
X365.6Y-53.6
X367.0Y-48.2
X367.0Y-52.0
X367.54Y-33.977
X367.54Y-56.023
X379.6Y-60.0
X385.6Y-34.6
X396.46Y-31.455
X396.46Y-58.523
X401.54Y-31.977
X401.54Y-58.023
X404.08Y-32.477
X404.08Y-57.523
X417.9Y-57.023
X417.92Y-32.977
X420.46Y-33.477
X420.46Y-56.523
X423.6Y-53.6
X425.0Y-48.6
X425.0Y-50.6
X425.54Y-33.977
X425.54Y-56.023
X444.46Y-31.455
X444.46Y-58.523
X449.54Y-31.977
X449.54Y-58.023
X452.08Y-32.477
X452.08Y-57.523
X465.92Y-32.977
X466.0Y-57.023
X468.46Y-32.977
X468.5Y-57.023
X471.6Y-53.6
X472.8Y-48.6
X472.8Y-50.6
X473.54Y-32.977
X473.54Y-57.023
X495.6Y-53.6
X504.4Y-55.2
X508.5Y-46.75
X508.5Y-57.25
X510.0Y-31.5
X510.0Y-33.0
X510.0Y-34.5
X511.0Y-46.8
X511.0Y-57.4
T4
X24.55Y-37.05
X27.25Y-38.0
X36.05Y-38.1
T6
X130.53Y-34.93
X130.53Y-37.47
X131.8Y-36.2
X133.07Y-34.93
X133.07Y-37.47
T7
X323.0Y-38.0
X323.0Y-52.0
X325.54Y-38.0
X325.54Y-52.0
X381.0Y-38.0
X381.0Y-52.0
X383.54Y-38.0
X383.54Y-52.0
T8
X25.92Y-29.8
X25.92Y-60.2
X28.46Y-29.8
X28.46Y-60.2
X31.0Y-29.8
X31.0Y-60.2
X33.54Y-29.8
X33.54Y-60.2
X36.08Y-29.8
X36.08Y-60.2
X49.92Y-29.8
X49.92Y-60.2
X52.46Y-29.8
X52.46Y-60.2
X55.0Y-29.8
X55.0Y-60.2
X57.54Y-29.8
X57.54Y-60.2
X60.08Y-29.8
X60.08Y-60.2
X73.92Y-29.8
X73.92Y-60.2
X76.46Y-29.8
X76.46Y-60.2
X79.0Y-29.8
X79.0Y-60.2
X81.54Y-29.8
X81.54Y-60.2
X84.08Y-29.8
X84.08Y-60.2
X97.92Y-29.8
X97.92Y-60.2
X100.46Y-29.8
X100.46Y-60.2
X103.0Y-29.8
X103.0Y-60.2
X105.54Y-29.8
X105.54Y-60.2
X108.08Y-29.8
X108.08Y-60.2
X121.92Y-29.8
X121.92Y-60.2
X124.46Y-29.8
X124.46Y-60.2
X127.0Y-29.8
X127.0Y-60.2
X129.54Y-29.8
X129.54Y-60.2
X132.08Y-29.8
X132.08Y-60.2
X145.92Y-29.8
X145.92Y-60.2
X148.46Y-29.8
X148.46Y-60.2
X151.0Y-29.8
X151.0Y-60.2
X153.54Y-29.8
X153.54Y-60.2
X156.08Y-29.8
X156.08Y-60.2
X169.92Y-29.8
X169.92Y-60.2
X172.46Y-29.8
X172.46Y-60.2
X175.0Y-29.8
X175.0Y-60.2
X177.54Y-29.8
X177.54Y-60.2
X180.08Y-29.8
X180.08Y-60.2
X193.92Y-29.8
X193.92Y-60.2
X196.46Y-29.8
X196.46Y-60.2
X199.0Y-29.8
X199.0Y-60.2
X201.54Y-29.8
X201.54Y-60.2
X204.08Y-29.8
X204.08Y-60.2
X217.92Y-29.8
X217.92Y-60.2
X220.46Y-29.8
X220.46Y-60.2
X223.0Y-29.8
X223.0Y-60.2
X225.54Y-29.8
X225.54Y-60.2
X228.08Y-29.8
X228.08Y-60.2
X241.92Y-29.8
X241.92Y-60.2
X244.46Y-29.8
X244.46Y-60.2
X247.0Y-29.8
X247.0Y-60.2
X249.54Y-29.8
X249.54Y-60.2
X252.08Y-29.8
X252.08Y-60.2
X277.92Y-29.8
X277.92Y-60.2
X280.46Y-29.8
X280.46Y-60.2
X283.0Y-29.8
X283.0Y-60.2
X285.54Y-29.8
X285.54Y-60.2
X288.08Y-29.8
X288.08Y-60.2
X301.92Y-29.8
X301.92Y-60.2
X304.46Y-29.8
X304.46Y-60.2
X307.0Y-29.8
X307.0Y-60.2
X309.54Y-29.8
X309.54Y-60.2
X312.08Y-29.8
X312.08Y-60.2
X335.92Y-29.8
X335.92Y-60.2
X338.46Y-29.8
X338.46Y-60.2
X341.0Y-29.8
X341.0Y-60.2
X343.54Y-29.8
X343.54Y-60.2
X346.08Y-29.8
X346.08Y-60.2
X359.92Y-29.8
X359.92Y-60.2
X362.46Y-29.8
X362.46Y-60.2
X365.0Y-29.8
X365.0Y-60.2
X367.54Y-29.8
X367.54Y-60.2
X370.08Y-29.8
X370.08Y-60.2
X393.92Y-29.8
X393.92Y-60.2
X396.46Y-29.8
X396.46Y-60.2
X399.0Y-29.8
X399.0Y-60.2
X401.54Y-29.8
X401.54Y-60.2
X404.08Y-29.8
X404.08Y-60.2
X417.92Y-29.8
X417.92Y-60.2
X420.46Y-29.8
X420.46Y-60.2
X423.0Y-29.8
X423.0Y-60.2
X425.54Y-29.8
X425.54Y-60.2
X428.08Y-29.8
X428.08Y-60.2
X441.92Y-29.8
X441.92Y-60.2
X444.46Y-29.8
X444.46Y-60.2
X447.0Y-29.8
X447.0Y-60.2
X449.54Y-29.8
X449.54Y-60.2
X452.08Y-29.8
X452.08Y-60.2
X465.92Y-29.8
X465.92Y-60.2
X468.46Y-29.8
X468.46Y-60.2
X471.0Y-29.8
X471.0Y-60.2
X473.54Y-29.8
X473.54Y-60.2
X476.08Y-29.8
X476.08Y-60.2
X489.92Y-29.8
X489.92Y-60.2
X492.46Y-29.8
X492.46Y-60.2
X495.0Y-29.8
X495.0Y-60.2
X497.54Y-29.8
X497.54Y-60.2
X500.08Y-29.8
X500.08Y-60.2
T9
X143.0Y-36.4
X143.0Y-49.6
T5
G00X15.39Y-40.68
M15
G01X16.19Y-40.68
M16
G05
G00X15.39Y-49.32
M15
G01X16.19Y-49.32
M16
G05
G00X19.44Y-40.68
M15
G01X20.54Y-40.68
M16
G05
G00X19.44Y-49.32
M15
G01X20.54Y-49.32
M16
G05
M30
